<svg xmlns="http://www.w3.org/2000/svg" width="151" height="70" viewBox="0 0 151 70" fill="none"><path d="M36.0113 47.3763L35.9206 47.3603C35.8441 47.3603 35.7677 47.3496 35.6894 47.3496C34.6044 47.3596 33.5322 47.586 32.5357 48.0154C31.5391 48.4448 30.6383 49.0686 29.8857 49.8504C30.0354 50.826 30.3615 51.7662 30.848 52.625C30.9049 52.5414 30.9654 52.4614 31.0258 52.3796L31.2553 52.0559C31.4189 51.8353 31.5843 51.6207 31.7515 51.412C31.8476 51.2928 31.9418 51.1826 32.0361 51.0687C32.1304 50.9549 32.2318 50.8393 32.3296 50.729C32.4541 50.5867 32.5768 50.4498 32.6995 50.3164C32.8223 50.183 32.9539 50.0425 33.0802 49.9126L33.3985 49.5925L33.6226 49.3755C33.8005 49.2083 33.9641 49.0535 34.126 48.9059C34.1918 48.849 34.2558 48.7885 34.3181 48.728L34.5991 48.4862L34.777 48.3314C34.9104 48.2229 35.0313 48.1233 35.1469 48.0326L35.3248 47.8939L35.5027 47.7587L35.6681 47.636L35.8139 47.531L35.9402 47.4403L35.9953 47.403L36.0416 47.371C36.0416 47.371 36.0273 47.3798 36.0113 47.3763Z" fill="url(#paint0_linear_2499_15656)"></path><path d="M34.6694 25.2636C34.8143 24.9143 34.988 24.5775 35.1887 24.2569C35.3061 23.9225 35.4377 23.6077 35.5783 23.3C34.532 21.2757 33.2156 19.4029 31.6653 17.7329L31.6831 17.7222C31.5674 17.5995 31.4483 17.4804 31.3273 17.3665C31.2064 17.2527 31.1335 17.1638 31.0339 17.0659C26.8381 12.8239 21.9629 9.75221 19.2184 1.00848C18.989 0.147626 18.4625 0 18.4625 0C17.9859 0.222328 17.0503 0.574496 17.0503 0.574496C15.8824 1.33549 14.8079 2.23093 13.8488 3.24244C12.6704 4.42962 11.6866 5.79518 10.9336 7.28881C15.51 12.0911 20.2856 13.6723 24.8371 16.1695C24.9705 16.2424 25.1004 16.3189 25.2338 16.3936C25.3672 16.4683 25.5521 16.5715 25.7104 16.6604L25.6962 16.6782C29.622 18.9882 32.9016 22.2513 35.2314 26.1654C35.0429 25.863 34.8597 25.5678 34.6694 25.2636Z" fill="url(#paint1_linear_2499_15656)"></path><path d="M38.3554 34.0769C38.3554 34.0769 38.3554 34.0662 38.3554 34.0609C37.7434 31.3004 36.6983 28.6543 35.2588 26.2207C36.6986 28.6598 37.7437 31.3113 38.3554 34.0769Z" fill="url(#paint2_linear_2499_15656)"></path><path d="M25.6889 16.6745L25.7031 16.6568C25.5448 16.5643 25.3847 16.4789 25.2264 16.39C25.0681 16.301 24.9632 16.2388 24.8298 16.1676C19.1666 13.0586 13.1549 11.3653 7.61624 3.14096C7.11111 2.31924 6.52061 2.32813 6.52061 2.32813C6.09552 2.70698 5.23288 3.35973 5.23288 3.35973C4.25373 4.51157 3.41375 5.77481 2.73035 7.12331C2.22286 8.08688 1.80605 9.09556 1.48531 10.1363C1.72009 10.6165 2.0189 11.1821 2.37463 11.8207C2.66099 12.2796 2.93846 12.8042 3.29418 13.3147C3.64991 13.8252 4.00563 14.3819 4.42539 14.9155C4.84514 15.4491 5.29335 15.9915 5.75936 16.5358C6.22536 17.0801 6.76428 17.5674 7.28008 18.0814C7.84747 18.5296 8.37216 19.0526 8.97156 19.4421C9.57095 19.8316 10.133 20.278 10.7502 20.5608C11.3221 20.8925 11.9235 21.1705 12.5466 21.3915C13.1424 21.5978 13.6956 21.8557 14.247 21.9357L15.7357 22.2559L16.9096 22.3324L17.943 22.3999L16.9096 22.4533L15.7143 22.5138L14.1651 22.3661C13.5853 22.3466 12.9948 22.1527 12.3492 22.0104C11.6723 21.8546 11.011 21.6379 10.3731 21.363C9.67767 21.1371 9.03914 20.7476 8.35437 20.4043C7.6696 20.061 7.05775 19.5844 6.39788 19.1717C5.78959 18.6951 5.15285 18.2308 4.58902 17.7204C4.0252 17.2099 3.45781 16.703 2.97047 16.1623C2.45467 15.6429 1.994 15.1111 1.56536 14.5971C1.25943 14.252 0.996193 13.9052 0.74185 13.5691C0.63514 14.5077 0.605992 15.4536 0.654699 16.3971C0.688304 18.3308 1.03735 20.2461 1.68808 22.0673C1.78591 22.1527 1.87839 22.2345 1.98333 22.3217C2.36218 22.6134 2.75526 22.9638 3.21059 23.275C3.66591 23.5863 4.13192 23.9402 4.64594 24.255C5.15996 24.5699 5.70066 24.8776 6.25559 25.187C6.81053 25.4965 7.40992 25.7295 7.99865 25.9981C8.60694 26.1938 9.20634 26.4641 9.8253 26.6011C10.4443 26.738 11.0508 26.9354 11.6573 26.9763C12.2359 27.0743 12.8224 27.1183 13.4092 27.108C13.9677 27.0955 14.5102 27.1364 14.9922 27.0315L16.3315 26.8341L17.3347 26.5317L18.224 26.2649L17.3862 26.6455L16.4044 27.0866L15.0705 27.4655C14.5831 27.6433 14.0282 27.67 13.4448 27.7607C12.8314 27.8509 12.2111 27.8855 11.5915 27.8639C10.9387 27.9012 10.2824 27.7856 9.60119 27.7216C8.91998 27.6576 8.25477 27.4619 7.56644 27.3321C6.90657 27.1346 6.22892 26.9532 5.59039 26.7131C4.95186 26.473 4.31689 26.2329 3.73528 25.9412C3.64101 25.9003 3.55742 25.8505 3.47026 25.8078C4.38555 27.2952 5.49979 28.6506 6.78207 29.8364C8.22887 31.0473 9.79499 32.1081 11.4563 33.0023C11.6217 33.0824 11.7782 33.1802 11.9472 33.2549V33.2638C15.5382 35.1314 20.6002 36.8708 27.1278 36.9882C32.6558 37.4578 36.6345 41.4437 38.2246 46.3865C39.6124 40.7454 39.1416 34.8069 36.8822 29.4549C34.6229 24.1029 30.6957 19.6235 25.6853 16.6834L25.6889 16.6745Z" fill="url(#paint3_linear_2499_15656)"></path><path d="M49.3462 18.61C41.2018 14.962 36.6806 21.333 36.6806 21.333L36.725 21.3651C36.0626 22.2408 35.5438 23.2164 35.1883 24.2553C34.9876 24.5759 34.8139 24.9127 34.6689 25.262C36.6718 28.3522 38.0208 31.8197 38.6329 35.4509C39.2449 39.0821 39.1072 42.8002 38.228 46.3761C38.228 46.3761 48.0104 44.0639 46.4595 30.6655C46.7369 26.9606 48.9264 23.6773 49.5792 22.932C51.2066 22.5496 53.3036 20.401 53.3036 20.401C53.3036 20.401 52.2934 18.8661 49.3462 18.61Z" fill="url(#paint4_linear_2499_15656)"></path><path style="mix-blend-mode:multiply" d="M35.6882 47.3474C35.7665 47.3474 35.843 47.3563 35.9194 47.3581C35.4357 47.2585 33.3742 46.8494 29.8419 47.6302C29.746 48.3676 29.7604 49.1151 29.8846 49.8482C30.6371 49.0664 31.538 48.4426 32.5345 48.0132C33.531 47.5838 34.6032 47.3575 35.6882 47.3474Z" fill="url(#paint5_linear_2499_15656)"></path><path style="mix-blend-mode:multiply" d="M30.8474 52.6243C30.3609 51.7655 30.0348 50.8252 29.8852 49.8496C28.736 51.0349 27.9732 52.5408 27.6976 54.1685C27.4219 55.7963 27.6464 57.4693 28.3413 58.9669C28.6597 56.395 29.7553 54.1735 31.0217 52.3859C30.9648 52.4606 30.9043 52.5407 30.8474 52.6243Z" fill="url(#paint6_linear_2499_15656)"></path><path d="M35.9187 47.3582L36.0041 47.3742C35.8031 47.3369 34.5136 47.0185 32.2139 47.2444C34.3073 47.0345 35.5559 47.2835 35.9187 47.3582Z" fill="url(#paint7_linear_2499_15656)"></path><path d="M28.3405 58.9673C27.6456 57.4697 27.4212 55.7967 27.6968 54.1689C27.9725 52.5412 28.7352 51.0353 29.8844 49.85C29.7602 49.1169 29.7458 48.3694 29.8417 47.6321C30.624 47.4582 31.4156 47.3294 32.2126 47.2461C30.4325 47.441 28.6808 47.8409 26.9924 48.4378C10.7944 53.9942 14.9119 67.9831 15.4082 69.0787C16.4342 69.5736 17.5514 69.851 18.6897 69.8934C18.6111 69.5094 18.5517 69.1218 18.5119 68.7319C18.4334 68.0274 18.4167 67.3174 18.4621 66.61C18.5119 66.2543 18.5243 65.8879 18.6079 65.5428C18.6696 65.2013 18.7564 64.8649 18.8676 64.5361C18.9582 64.2264 19.0773 63.9257 19.2233 63.6379C19.3384 63.3746 19.4771 63.1222 19.6377 62.8838C19.7889 62.6668 19.9259 62.4658 20.0468 62.2879L20.4257 61.8806L20.7512 61.5249L20.4737 61.9162L20.1571 62.3609L19.8387 62.9887C19.7151 63.2353 19.6139 63.4924 19.5363 63.7571C19.4347 64.0461 19.3597 64.3438 19.3122 64.6464C19.2475 64.9654 19.2077 65.2889 19.1931 65.614C19.1575 65.9412 19.1931 66.2827 19.1931 66.6154C19.2375 67.2716 19.3393 67.9227 19.4972 68.5612C19.6025 69.0072 19.7356 69.4462 19.8956 69.8756C21.6458 69.7653 23.3746 69.3117 25.1159 69.0325C25.0857 68.9756 25.0519 68.9276 25.0234 68.8689C24.6545 68.1658 24.3474 67.4321 24.1056 66.6758C24.0132 66.281 23.878 65.9003 23.8228 65.5037C23.7491 65.1222 23.7034 64.7358 23.6859 64.3476C23.6537 63.9873 23.6537 63.6248 23.6859 63.2644C23.6999 62.943 23.7422 62.6234 23.8122 62.3093L23.99 61.5196C24.0772 61.2955 24.1554 61.0998 24.2177 60.9397C24.344 60.6196 24.4169 60.4382 24.4169 60.4382C24.4169 60.4382 24.3653 60.6267 24.2782 60.9593C24.2337 61.1229 24.1821 61.315 24.1199 61.5516C24.095 61.7864 24.0647 62.0514 24.0309 62.3395C23.9989 62.6486 23.9947 62.9599 24.0185 63.2697C24.0236 63.614 24.0611 63.957 24.1305 64.2942C24.189 64.6557 24.274 65.0124 24.3849 65.3614C24.4792 65.7171 24.6499 66.0729 24.7762 66.4286C25.083 67.1039 25.4478 67.7514 25.8665 68.3637C25.9892 68.5523 26.119 68.7195 26.2489 68.8884C28.088 68.7106 29.9502 68.8618 31.8782 70.0001C28.7407 65.895 27.9439 62.1634 28.3405 58.9673Z" fill="url(#paint8_linear_2499_15656)"></path><path d="M53.3691 56.2725V42.1484H56.0264V53.6704H63.2281V56.269L53.3691 56.2725Z" fill="white"></path><path d="M68.9277 56.2725V42.1484H71.5957V56.2725H68.9277Z" fill="white"></path><path d="M128.87 56.2725V42.1484H131.529V56.2725H128.87Z" fill="white"></path><path d="M141.557 55.7216C140.72 55.3615 139.96 54.8461 139.316 54.2026C138.655 53.5655 138.138 52.7956 137.797 51.9438C137.417 51.0758 137.222 50.138 137.226 49.1905C137.225 47.9823 137.534 46.7941 138.124 45.7395C138.713 44.685 139.564 43.7991 140.593 43.1667C141.622 42.5342 142.797 42.1762 144.004 42.127C145.211 42.0777 146.411 42.3388 147.488 42.8852C148.472 43.3748 149.326 44.0911 149.978 44.9751L150.283 45.354L148.251 46.8534L147.965 46.4745C147.545 45.9042 146.996 45.4416 146.362 45.1247C145.729 44.8077 145.029 44.6456 144.321 44.6514C143.544 44.6514 142.78 44.8499 142.102 45.2281C141.423 45.6063 140.853 46.1516 140.445 46.8122C140.036 47.4728 139.803 48.2269 139.768 49.0028C139.733 49.7786 139.897 50.5506 140.244 51.2453C140.592 51.9401 141.111 52.5345 141.752 52.9723C142.394 53.4101 143.136 53.6766 143.91 53.7466C144.684 53.8165 145.462 53.6876 146.172 53.3721C146.881 53.0566 147.499 52.5649 147.965 51.9438L148.251 51.5881L150.263 53.0679L149.959 53.4485C149.306 54.3285 148.456 55.043 147.477 55.5345C146.497 56.026 145.416 56.2807 144.321 56.2783C143.372 56.2769 142.432 56.0877 141.557 55.7216Z" fill="white"></path><path d="M86.2461 45.4691V51.392L79.9978 42.1484H77.417V56.2725H80.076V47.0094L86.3457 56.2725H88.9034V45.4691H86.2461Z" fill="white"></path><path opacity="0.8" d="M99.7209 48.9019L106.898 42.1484H103.088L97.4549 47.4452V42.1484H94.8154V56.2725H97.4549V51.0362L99.7155 48.893L99.7209 48.9019Z" fill="white"></path><path opacity="0.8" d="M103.298 49.2656L101.304 51.1207L104.973 56.2716H108.287L103.298 49.2656Z" fill="white"></path><path d="M117.23 56.2432V44.7373H113.758V42.1191H123.362V44.7373H119.889V56.2432H117.23Z" fill="white"></path><path d="M56.7227 63.5991H53.9551V63.6151C54.0334 64.2109 54.4887 64.6574 54.9974 64.6663C55.3263 64.6512 55.6385 64.5172 55.876 64.2892L56.4399 64.6271C56.3011 64.7835 56.1398 64.9183 55.9614 65.0273C55.6718 65.1917 55.3463 65.2827 55.0134 65.2924C54.7835 65.2937 54.5559 65.2454 54.3463 65.1509C54.1367 65.0563 53.9499 64.9178 53.7986 64.7445C53.5125 64.4344 53.3407 64.036 53.3113 63.6151C53.3077 63.56 53.3077 63.5048 53.3113 63.4497C53.3118 63.3074 53.3273 63.1655 53.3575 63.0264C53.4279 62.7021 53.5825 62.4022 53.8057 62.1566C53.9598 61.9879 54.1475 61.8532 54.3567 61.7613C54.5659 61.6695 54.792 61.6223 55.0205 61.6231C55.2503 61.6223 55.4778 61.6694 55.6885 61.7612C55.8991 61.8531 56.0884 61.9877 56.2442 62.1566C56.4695 62.4005 56.6239 62.7012 56.6906 63.0264C56.7265 63.2151 56.7372 63.4076 56.7227 63.5991ZM56.0112 63.0353V63.0193C55.9466 62.8024 55.8159 62.6111 55.6373 62.4721C55.4588 62.3331 55.2413 62.2533 55.0152 62.2438C54.7898 62.2558 54.5735 62.3366 54.3955 62.4752C54.2174 62.6139 54.0861 62.8037 54.0191 63.0193V63.0353H56.0112Z" fill="white"></path><path d="M60.5146 61.6387L59.049 65.2315H58.3198L56.8613 61.6405H57.5906L58.688 64.3422L59.7783 61.644L60.5146 61.6387Z" fill="white"></path><path d="M64.4807 63.4352C64.4788 63.9338 64.28 64.4113 63.9275 64.7638C63.575 65.1163 63.0974 65.3152 62.5989 65.317C62.1008 65.317 61.6231 65.1191 61.2708 64.7669C60.9186 64.4147 60.7207 63.9369 60.7207 63.4388C60.7207 62.9407 60.9186 62.4629 61.2708 62.1107C61.6231 61.7585 62.1008 61.5606 62.5989 61.5606C62.8458 61.5594 63.0904 61.607 63.3188 61.7007C63.5472 61.7944 63.7548 61.9324 63.9297 62.1066C64.1045 62.2808 64.2433 62.4879 64.3378 62.7159C64.4324 62.9439 64.481 63.1884 64.4807 63.4352ZM63.8066 63.4352C63.807 63.1963 63.7364 62.9626 63.604 62.7638C63.4715 62.565 63.283 62.4099 63.0623 62.3182C62.8417 62.2265 62.5988 62.2024 62.3644 62.2488C62.13 62.2952 61.9147 62.41 61.7456 62.5789C61.5765 62.7477 61.4613 62.9629 61.4146 63.1972C61.3678 63.4315 61.3917 63.6744 61.483 63.8952C61.5744 64.116 61.7292 64.3047 61.9278 64.4375C62.1264 64.5703 62.36 64.6412 62.5989 64.6412C62.7576 64.6419 62.9148 64.6112 63.0615 64.5508C63.2082 64.4905 63.3416 64.4017 63.4538 64.2896C63.5661 64.1775 63.6551 64.0443 63.7156 63.8977C63.7762 63.7511 63.8071 63.5939 63.8066 63.4352Z" fill="white"></path><path d="M65.1836 65.232V59.4746H65.8506V65.232H65.1836Z" fill="white"></path><path d="M66.8379 63.693V61.6387H67.512V63.693C67.5228 63.9478 67.6316 64.1885 67.8157 64.365C67.9998 64.5415 68.245 64.64 68.5 64.64C68.755 64.64 69.0002 64.5415 69.1843 64.365C69.3684 64.1885 69.4772 63.9478 69.4881 63.693V61.6387H70.1622V63.693C70.1616 63.9085 70.1175 64.1217 70.0325 64.3197C69.9475 64.5178 69.8235 64.6966 69.6677 64.8455C69.3498 65.1428 68.9308 65.3081 68.4956 65.3081C68.0604 65.3081 67.6414 65.1428 67.3235 64.8455C67.1693 64.6959 67.0469 64.5167 66.9635 64.3186C66.88 64.1206 66.8373 63.9079 66.8379 63.693Z" fill="white"></path><path d="M74.2849 64.5384C74.2209 64.6167 74.1587 64.695 74.0875 64.7661C73.7321 65.1127 73.2553 65.3067 72.7589 65.3067C72.2625 65.3067 71.7857 65.1127 71.4302 64.7661C71.1672 64.5036 70.9882 64.1689 70.9158 63.8044C70.8434 63.4399 70.881 63.0621 71.0237 62.719C71.1665 62.376 71.408 62.083 71.7176 61.8775C72.0272 61.6719 72.3908 61.563 72.7624 61.5646C73.0076 61.5616 73.2509 61.6073 73.4783 61.6989C73.7058 61.7904 73.9128 61.9262 74.0875 62.0982C74.1566 62.1661 74.2197 62.2399 74.2761 62.3187L73.7425 62.7171C73.6195 62.5513 73.4562 62.4198 73.2681 62.3349C73.08 62.2501 72.8732 62.2148 72.6676 62.2324C72.462 62.2501 72.2643 62.32 72.0933 62.4356C71.9224 62.5513 71.7838 62.7087 71.6909 62.893C71.598 63.0773 71.5538 63.2823 71.5625 63.4885C71.5712 63.6947 71.6326 63.8952 71.7407 64.071C71.8488 64.2468 72.0001 64.3921 72.1802 64.4929C72.3603 64.5937 72.5632 64.6467 72.7696 64.6469C72.9607 64.6456 73.1487 64.5985 73.3179 64.5097C73.4872 64.4209 73.6327 64.293 73.7425 64.1365L74.2849 64.5384Z" fill="white"></path><path d="M75.042 60.6068C75.042 60.4888 75.0888 60.3757 75.1722 60.2923C75.2556 60.209 75.3687 60.1621 75.4866 60.1621C75.6046 60.1621 75.7177 60.209 75.8011 60.2923C75.8845 60.3757 75.9313 60.4888 75.9313 60.6068C75.9313 60.7247 75.8845 60.8378 75.8011 60.9212C75.7177 61.0046 75.6046 61.0514 75.4866 61.0514C75.3687 61.0514 75.2556 61.0046 75.1722 60.9212C75.0888 60.8378 75.042 60.7247 75.042 60.6068ZM75.1523 61.633H75.8264V65.2312H75.1523V61.633Z" fill="white"></path><path d="M80.46 63.4352C80.4572 63.9338 80.2578 64.411 79.9051 64.7634C79.5525 65.1157 79.075 65.3147 78.5765 65.317C78.0783 65.317 77.6006 65.1191 77.2484 64.7669C76.8961 64.4147 76.6982 63.9369 76.6982 63.4388C76.6982 62.9407 76.8961 62.4629 77.2484 62.1107C77.6006 61.7584 78.0783 61.5606 78.5765 61.5606C78.8233 61.5596 79.068 61.6074 79.2963 61.7012C79.5247 61.795 79.7323 61.9329 79.9073 62.107C80.0823 62.2812 80.2212 62.4881 80.316 62.716C80.4109 62.944 80.4598 63.1884 80.46 63.4352ZM79.7842 63.4352C79.7845 63.1963 79.714 62.9626 79.5815 62.7638C79.449 62.565 79.2605 62.4099 79.0399 62.3182C78.8192 62.2265 78.5763 62.2024 78.342 62.2488C78.1076 62.2952 77.8922 62.41 77.7231 62.5789C77.5541 62.7477 77.4389 62.9629 77.3921 63.1972C77.3454 63.4315 77.3692 63.6744 77.4605 63.8952C77.5519 64.116 77.7067 64.3047 77.9053 64.4375C78.104 64.5703 78.3375 64.6411 78.5765 64.6411C78.7351 64.6418 78.8923 64.6112 79.0391 64.5508C79.1858 64.4905 79.3191 64.4017 79.4314 64.2896C79.5436 64.1775 79.6326 64.0443 79.6932 63.8977C79.7537 63.7511 79.7846 63.5939 79.7842 63.4352Z" fill="white"></path><path d="M84.6041 63.3026V65.2324H83.93V63.3026C83.9496 63.1521 83.9368 62.9992 83.8926 62.854C83.8483 62.7088 83.7736 62.5748 83.6735 62.4608C83.5733 62.3468 83.45 62.2554 83.3118 62.1929C83.1735 62.1303 83.0235 62.0979 82.8718 62.0979C82.72 62.0979 82.57 62.1303 82.4317 62.1929C82.2935 62.2554 82.1702 62.3468 82.07 62.4608C81.9698 62.5748 81.8952 62.7088 81.8509 62.854C81.8067 62.9992 81.7939 63.1521 81.8135 63.3026V65.2324H81.1465V61.6396H81.8206V61.9846C82.1212 61.7328 82.4961 61.5866 82.8878 61.5684C83.1161 61.5664 83.3425 61.6099 83.5538 61.6963C83.7651 61.7828 83.9571 61.9104 84.1186 62.0718C84.4362 62.4021 84.6107 62.8444 84.6041 63.3026Z" fill="white"></path><path d="M88.3027 61.6379H88.9732V65.2307H88.2973V64.8163C87.9641 65.1156 87.5371 65.2898 87.0896 65.309C86.8387 65.3167 86.5888 65.274 86.3547 65.1833C86.1206 65.0926 85.9071 64.9558 85.7269 64.7811C85.5466 64.6063 85.4034 64.3971 85.3055 64.1659C85.2076 63.9348 85.1572 63.6863 85.1572 63.4352C85.1572 63.1842 85.2076 62.9357 85.3055 62.7045C85.4034 62.4733 85.5466 62.2641 85.7269 62.0894C85.9071 61.9146 86.1206 61.7778 86.3547 61.6871C86.5888 61.5964 86.8387 61.5537 87.0896 61.5614C87.5375 61.5804 87.9647 61.7553 88.2973 62.0559L88.3027 61.6379ZM88.3027 63.4343C88.3012 63.1958 88.2292 62.963 88.0957 62.7653C87.9621 62.5677 87.773 62.414 87.5522 62.3237C87.3314 62.2333 87.0888 62.2104 86.855 62.2578C86.6212 62.3052 86.4067 62.4208 86.2385 62.59C86.0703 62.7592 85.956 62.9744 85.91 63.2084C85.864 63.4425 85.8883 63.685 85.9799 63.9052C86.0715 64.1255 86.2263 64.3137 86.4248 64.4461C86.6232 64.5785 86.8564 64.6491 87.095 64.6491C87.4159 64.6473 87.7231 64.5184 87.9494 64.2908C88.1757 64.0632 88.3027 63.7553 88.3027 63.4343Z" fill="white"></path><path d="M96.1168 63.3025V65.2323H95.4427V63.3025C95.4427 63.0195 95.3302 62.748 95.1301 62.5479C94.93 62.3478 94.6585 62.2354 94.3755 62.2354C94.0925 62.2354 93.821 62.3478 93.6209 62.5479C93.4207 62.748 93.3083 63.0195 93.3083 63.3025V65.2323H92.6342V63.3025C92.6538 63.152 92.641 62.9991 92.5967 62.8539C92.5525 62.7088 92.4778 62.5747 92.3777 62.4607C92.2775 62.3467 92.1542 62.2554 92.0159 62.1928C91.8777 62.1302 91.7277 62.0979 91.5759 62.0979C91.4242 62.0979 91.2742 62.1302 91.1359 62.1928C90.9977 62.2554 90.8743 62.3467 90.7742 62.4607C90.674 62.5747 90.5993 62.7088 90.5551 62.8539C90.5109 62.9991 90.4981 63.152 90.5176 63.3025V65.2323H89.8613V61.6395H90.5354V61.9846C90.836 61.7328 91.2109 61.5865 91.6026 61.5684C92.0673 61.5765 92.5099 61.7683 92.8334 62.102C92.8948 62.1616 92.9502 62.2271 92.9988 62.2976C93.0542 62.229 93.1136 62.1636 93.1767 62.102C93.5003 61.7683 93.9428 61.5765 94.4075 61.5684C94.6353 61.5677 94.8611 61.612 95.0717 61.699C95.2823 61.7859 95.4736 61.9136 95.6347 62.0748C95.7957 62.236 95.9233 62.4275 96.01 62.6382C96.0967 62.8489 96.1408 63.0747 96.1399 63.3025H96.1168Z" fill="white"></path><path d="M100.496 63.4352C100.494 63.9338 100.296 64.4113 99.9431 64.7638C99.5906 65.1163 99.1131 65.3152 98.6146 65.317C98.1164 65.317 97.6387 65.1191 97.2864 64.7669C96.9342 64.4147 96.7363 63.9369 96.7363 63.4388C96.7363 62.9407 96.9342 62.4629 97.2864 62.1107C97.6387 61.7585 98.1164 61.5606 98.6146 61.5606C98.8614 61.5594 99.106 61.607 99.3344 61.7007C99.5628 61.7944 99.7704 61.9324 99.9453 62.1066C100.12 62.2808 100.259 62.4879 100.353 62.7159C100.448 62.9439 100.497 63.1884 100.496 63.4352ZM99.8222 63.4352C99.8226 63.1963 99.7521 62.9626 99.6196 62.7638C99.4871 62.565 99.2986 62.4099 99.078 62.3182C98.8573 62.2265 98.6144 62.2024 98.38 62.2488C98.1457 62.2952 97.9303 62.41 97.7612 62.5789C97.5921 62.7477 97.4769 62.9629 97.4302 63.1972C97.3835 63.4315 97.4073 63.6744 97.4986 63.8952C97.59 64.116 97.7448 64.3047 97.9434 64.4375C98.1421 64.5703 98.3756 64.6412 98.6146 64.6412C98.7732 64.6419 98.9304 64.6112 99.0771 64.5508C99.2239 64.4905 99.3572 64.4017 99.4695 64.2896C99.5817 64.1775 99.6707 64.0443 99.7312 63.8977C99.7918 63.7511 99.8227 63.5939 99.8222 63.4352Z" fill="white"></path><path d="M103.708 64.1641C103.71 64.3661 103.648 64.5635 103.53 64.7279C103.411 64.9013 103.245 65.0375 103.052 65.121C102.85 65.21 102.631 65.2554 102.41 65.2544C102.286 65.2529 102.163 65.2398 102.042 65.2152C101.648 65.1366 101.28 64.9584 100.975 64.6977L101.398 64.2352C101.665 64.4905 102.016 64.6408 102.385 64.6585C102.528 64.6586 102.67 64.6289 102.801 64.5714C102.883 64.5391 102.954 64.4831 103.004 64.4106C103.055 64.3381 103.082 64.2523 103.084 64.1641C103.084 63.9204 102.872 63.7728 102.385 63.6856C102.098 63.6344 101.817 63.5527 101.547 63.442C101.394 63.3633 101.265 63.2431 101.176 63.095C101.087 62.9469 101.041 62.7769 101.044 62.6042C101.048 62.4075 101.11 62.2163 101.222 62.0546C101.338 61.9024 101.493 61.7834 101.67 61.7096C101.864 61.6208 102.075 61.5753 102.289 61.5762C102.376 61.5762 102.467 61.5762 102.556 61.5922C102.909 61.6505 103.241 61.7987 103.52 62.0226L103.129 62.4779C102.898 62.2873 102.611 62.1795 102.312 62.172C102.18 62.1679 102.048 62.1947 101.928 62.2503C101.856 62.2804 101.794 62.3294 101.749 62.3921C101.703 62.4547 101.675 62.5287 101.668 62.606C101.668 62.8408 101.857 62.9617 102.335 63.0685C102.619 63.1247 102.897 63.2056 103.166 63.3103C103.315 63.3802 103.444 63.4852 103.543 63.6163C103.653 63.7777 103.71 63.9689 103.708 64.1641Z" fill="white"></path><path d="M109.427 64.5399C109.365 64.619 109.3 64.695 109.231 64.7676C109.056 64.9395 108.849 65.0751 108.622 65.1666C108.394 65.2582 108.151 65.3039 107.906 65.3012C107.655 65.3089 107.405 65.2662 107.171 65.1755C106.937 65.0848 106.724 64.948 106.543 64.7733C106.363 64.5985 106.22 64.3893 106.122 64.1581C106.024 63.9269 105.974 63.6784 105.974 63.4274C105.974 63.1764 106.024 62.9279 106.122 62.6967C106.22 62.4655 106.363 62.2563 106.543 62.0816C106.724 61.9068 106.937 61.77 107.171 61.6793C107.405 61.5886 107.655 61.5459 107.906 61.5536C108.151 61.5509 108.394 61.5966 108.622 61.6882C108.849 61.7797 109.056 61.9154 109.231 62.0872C109.3 62.1552 109.362 62.229 109.418 62.3078L108.884 62.7062C108.761 62.5403 108.598 62.4087 108.41 62.3239C108.221 62.239 108.015 62.2038 107.809 62.2215C107.603 62.2392 107.406 62.3093 107.235 62.4251C107.064 62.5408 106.925 62.6984 106.832 62.8828C106.74 63.0673 106.695 63.2724 106.704 63.4787C106.713 63.6849 106.775 63.8855 106.883 64.0612C106.992 64.237 107.143 64.3821 107.323 64.4827C107.504 64.5833 107.707 64.6361 107.913 64.636C108.104 64.6346 108.292 64.5876 108.461 64.4988C108.63 64.4099 108.775 64.282 108.884 64.1255L109.427 64.5399Z" fill="white"></path><path d="M113.56 63.4352C113.558 63.9338 113.359 64.4113 113.007 64.7638C112.654 65.1163 112.177 65.3152 111.678 65.317C111.18 65.317 110.702 65.1191 110.35 64.7669C109.998 64.4147 109.8 63.9369 109.8 63.4388C109.8 62.9407 109.998 62.4629 110.35 62.1107C110.702 61.7585 111.18 61.5606 111.678 61.5606C111.925 61.5594 112.17 61.607 112.398 61.7007C112.626 61.7944 112.834 61.9324 113.009 62.1066C113.184 62.2808 113.322 62.4879 113.417 62.7159C113.512 62.9439 113.56 63.1884 113.56 63.4352ZM112.886 63.4352C112.886 63.1963 112.816 62.9626 112.683 62.7638C112.551 62.565 112.362 62.4099 112.141 62.3182C111.921 62.2265 111.678 62.2024 111.444 62.2488C111.209 62.2952 110.994 62.41 110.825 62.5789C110.656 62.7477 110.54 62.9629 110.494 63.1972C110.447 63.4315 110.471 63.6744 110.562 63.8952C110.653 64.116 110.808 64.3047 111.007 64.4375C111.206 64.5703 111.439 64.6412 111.678 64.6412C111.837 64.6419 111.994 64.6112 112.141 64.5508C112.287 64.4905 112.421 64.4017 112.533 64.2896C112.645 64.1775 112.734 64.0443 112.795 63.8977C112.855 63.7511 112.886 63.5939 112.886 63.4352Z" fill="white"></path><path d="M117.706 63.3026V65.2324H117.03V63.3026C117.049 63.1521 117.037 62.9992 116.992 62.854C116.948 62.7088 116.874 62.5748 116.773 62.4608C116.673 62.3468 116.55 62.2554 116.412 62.1928C116.273 62.1303 116.123 62.0979 115.972 62.0979C115.82 62.0979 115.67 62.1303 115.532 62.1928C115.393 62.2554 115.27 62.3468 115.17 62.4608C115.07 62.5748 114.995 62.7088 114.951 62.854C114.907 62.9992 114.894 63.1521 114.913 63.3026V65.2324H114.239V61.6396H114.913V61.9846C115.212 61.7346 115.583 61.5885 115.972 61.5684C116.2 61.5666 116.427 61.6101 116.638 61.6965C116.85 61.7829 117.042 61.9105 117.204 62.0718C117.527 62.3999 117.707 62.8422 117.706 63.3026Z" fill="white"></path><path d="M118.73 64.0386V62.2831H118.196V61.6393H118.73V60.252H119.404V61.6393H120.509V62.2831H119.404V64.0226C119.406 64.1666 119.462 64.3047 119.561 64.4094C119.659 64.5142 119.794 64.578 119.938 64.5882H120.541L120.718 65.2303H119.92C119.763 65.231 119.608 65.2007 119.463 65.141C119.318 65.0814 119.187 64.9936 119.076 64.8828C118.966 64.7719 118.878 64.6403 118.819 64.4954C118.759 64.3505 118.729 64.1953 118.73 64.0386Z" fill="white"></path><path d="M121.355 60.6068C121.355 60.4888 121.402 60.3757 121.486 60.2923C121.569 60.209 121.682 60.1621 121.8 60.1621C121.918 60.1621 122.031 60.209 122.115 60.2923C122.198 60.3757 122.245 60.4888 122.245 60.6068C122.245 60.7247 122.198 60.8378 122.115 60.9212C122.031 61.0046 121.918 61.0514 121.8 61.0514C121.682 61.0514 121.569 61.0046 121.486 60.9212C121.402 60.8378 121.355 60.7247 121.355 60.6068ZM121.464 61.633H122.138V65.2312H121.464V61.633Z" fill="white"></path><path d="M126.639 61.6384V65.4091C126.638 65.9079 126.439 66.386 126.087 66.7387C125.734 67.0914 125.256 67.29 124.757 67.2909C124.402 67.2925 124.053 67.1979 123.747 67.017C123.625 66.9422 123.512 66.8552 123.409 66.7573L123.919 66.3109C124.161 66.4986 124.452 66.6106 124.757 66.6328C125.08 66.63 125.388 66.4998 125.615 66.2706C125.842 66.0413 125.969 65.7317 125.968 65.4091V64.8222C125.635 65.1215 125.208 65.2956 124.761 65.3149C124.51 65.3226 124.26 65.2798 124.026 65.1892C123.792 65.0985 123.578 64.9617 123.398 64.7869C123.218 64.6122 123.074 64.403 122.976 64.1718C122.879 63.9406 122.828 63.6921 122.828 63.4411C122.828 63.19 122.879 62.9415 122.976 62.7104C123.074 62.4792 123.218 62.27 123.398 62.0952C123.578 61.9205 123.792 61.7837 124.026 61.693C124.26 61.6023 124.51 61.5596 124.761 61.5673C125.208 61.5863 125.636 61.7612 125.968 62.0617V61.6384H126.639ZM125.968 63.4349C125.967 63.1963 125.895 62.9635 125.761 62.7658C125.628 62.5682 125.439 62.4145 125.218 62.3242C124.997 62.2339 124.754 62.211 124.521 62.2584C124.287 62.3058 124.072 62.4213 123.904 62.5905C123.736 62.7597 123.622 62.9749 123.576 63.209C123.53 63.443 123.554 63.6855 123.645 63.9058C123.737 64.126 123.892 64.3142 124.09 64.4466C124.289 64.579 124.522 64.6496 124.761 64.6496C125.081 64.6478 125.389 64.519 125.615 64.2913C125.841 64.0637 125.968 63.7558 125.968 63.4349Z" fill="white"></path><path d="M131.019 63.4352C131.017 63.9338 130.818 64.4113 130.466 64.7638C130.113 65.1163 129.636 65.3152 129.137 65.317C128.639 65.317 128.161 65.1191 127.809 64.7669C127.457 64.4147 127.259 63.9369 127.259 63.4388C127.259 62.9407 127.457 62.4629 127.809 62.1107C128.161 61.7585 128.639 61.5606 129.137 61.5606C129.384 61.5594 129.629 61.607 129.857 61.7007C130.085 61.7944 130.293 61.9324 130.468 62.1066C130.643 62.2808 130.781 62.4879 130.876 62.7159C130.97 62.9439 131.019 63.1884 131.019 63.4352ZM130.345 63.4352C130.345 63.1963 130.275 62.9626 130.142 62.7638C130.01 62.565 129.821 62.4099 129.6 62.3182C129.38 62.2265 129.137 62.2024 128.902 62.2488C128.668 62.2952 128.453 62.41 128.284 62.5789C128.115 62.7477 127.999 62.9629 127.953 63.1972C127.906 63.4315 127.93 63.6744 128.021 63.8952C128.112 64.116 128.267 64.3047 128.466 64.4375C128.665 64.5703 128.898 64.6412 129.137 64.6412C129.296 64.6419 129.453 64.6112 129.6 64.5508C129.746 64.4905 129.88 64.4017 129.992 64.2896C130.104 64.1775 130.193 64.0443 130.254 63.8977C130.314 63.7511 130.345 63.5939 130.345 63.4352Z" fill="white"></path><path d="M36.0104 47.3743L35.9196 47.3583C35.8432 47.3583 35.7667 47.3477 35.6884 47.3477C34.6034 47.3577 33.5312 47.584 32.5347 48.0134C31.5382 48.4428 30.6373 49.0666 29.8848 49.8484C30.0344 50.824 30.3605 51.7643 30.847 52.6231C30.9039 52.5395 30.9644 52.4594 31.0249 52.3776L31.2543 52.0539C31.4179 51.8334 31.5834 51.6187 31.7505 51.41C31.8466 51.2909 31.9409 51.1806 32.0351 51.0668C32.1294 50.9529 32.2308 50.8373 32.3286 50.727C32.4531 50.5848 32.5758 50.4478 32.6986 50.3144C32.8213 50.181 32.9529 50.0405 33.0792 49.9107L33.3976 49.5905L33.6217 49.3735C33.7995 49.2063 33.9632 49.0516 34.125 48.904C34.1908 48.847 34.2549 48.7866 34.3171 48.7261L34.5981 48.4842L34.776 48.3295C34.9094 48.221 35.0303 48.1214 35.1459 48.0306L35.3238 47.8919L35.5017 47.7567L35.6671 47.634L35.8129 47.5291L35.9392 47.4384L35.9943 47.401L36.0406 47.369C36.0406 47.369 36.0264 47.3779 36.0104 47.3743Z" fill="#D2D2D2"></path><path d="M34.6674 25.2636C34.8124 24.9142 34.9861 24.5775 35.1868 24.2569C35.3041 23.9225 35.4358 23.6077 35.5763 23.3C34.53 21.2757 33.2137 19.4029 31.6633 17.7329L31.6811 17.7222C31.5655 17.5995 31.4463 17.4803 31.3254 17.3665C31.2044 17.2527 31.1315 17.1637 31.0319 17.0659C26.8361 12.8239 21.9609 9.7522 19.2165 1.00848C18.987 0.147626 18.4606 0 18.4606 0C17.9839 0.222328 17.0483 0.574495 17.0483 0.574495C15.8805 1.33549 14.8059 2.23093 13.8468 3.24243C12.6684 4.42961 11.6846 5.79517 10.9316 7.28881C15.508 12.0911 20.2837 13.6723 24.8352 16.1695C24.9686 16.2424 25.0984 16.3189 25.2318 16.3936C25.3652 16.4683 25.5502 16.5715 25.7085 16.6604L25.6942 16.6782C29.6201 18.9882 32.8997 22.2512 35.2294 26.1654C35.0409 25.863 34.8577 25.5677 34.6674 25.2636Z" fill="#D2D2D2"></path><path d="M38.3544 34.0769C38.3544 34.0769 38.3544 34.0662 38.3544 34.0609C37.7425 31.3004 36.6973 28.6543 35.2578 26.2207C36.6977 28.6598 37.7428 31.3113 38.3544 34.0769Z" fill="url(#paint9_linear_2499_15656)"></path><path d="M25.6879 16.6745L25.7021 16.6567C25.5438 16.5642 25.3837 16.4789 25.2254 16.3899C25.0671 16.301 24.9622 16.2388 24.8288 16.1676C19.1657 13.0586 13.1539 11.3653 7.61526 3.14096C7.11013 2.31924 6.51963 2.32813 6.51963 2.32813C6.09453 2.70698 5.2319 3.35973 5.2319 3.35973C4.25275 4.51157 3.41277 5.77481 2.72938 7.12331C2.22188 8.08688 1.80507 9.09555 1.48434 10.1363C1.71912 10.6165 2.01792 11.1821 2.37365 11.8207C2.66001 12.2795 2.93748 12.8042 3.2932 13.3147C3.64893 13.8252 4.00465 14.3819 4.42441 14.9155C4.84416 15.449 5.29237 15.9915 5.75837 16.5358C6.22437 17.0801 6.7633 17.5674 7.2791 18.0814C7.84648 18.5296 8.37117 19.0525 8.97057 19.4421C9.56997 19.8316 10.132 20.278 10.7492 20.5608C11.3211 20.8925 11.9225 21.1705 12.5456 21.3914C13.1414 21.5978 13.6946 21.8557 14.246 21.9357L15.7347 22.2559L16.9086 22.3323L17.942 22.3999L16.9086 22.4533L15.7133 22.5138L14.1642 22.3661C13.5843 22.3466 12.9938 22.1527 12.3482 22.0104C11.6713 21.8545 11.01 21.6379 10.3721 21.363C9.67669 21.1371 9.03816 20.7476 8.35339 20.4043C7.66862 20.061 7.05677 19.5844 6.3969 19.1717C5.78861 18.695 5.15187 18.2308 4.58804 17.7204C4.02422 17.2099 3.45683 16.703 2.96949 16.1623C2.45369 15.6429 1.99303 15.1111 1.56438 14.5971C1.25845 14.252 0.995217 13.9052 0.740873 13.569C0.634163 14.5077 0.605015 15.4536 0.653722 16.3971C0.687327 18.3308 1.03638 20.2461 1.6871 22.0673C1.78493 22.1527 1.87742 22.2345 1.98236 22.3217C2.3612 22.6134 2.75428 22.9637 3.20961 23.275C3.66493 23.5863 4.13094 23.9402 4.64496 24.255C5.15898 24.5698 5.69968 24.8775 6.25461 25.187C6.80954 25.4965 7.40894 25.7295 7.99766 25.9981C8.60595 26.1937 9.20535 26.4641 9.82432 26.601C10.4433 26.738 11.0498 26.9354 11.6563 26.9763C12.235 27.0743 12.8214 27.1183 13.4082 27.1079C13.9667 27.0955 14.5092 27.1364 14.9912 27.0315L16.3305 26.834L17.3337 26.5317L18.223 26.2649L17.3852 26.6455L16.4034 27.0866L15.0695 27.4654C14.5821 27.6433 14.0272 27.67 13.4438 27.7607C12.8304 27.8509 12.2101 27.8854 11.5905 27.8639C10.9377 27.9012 10.2814 27.7856 9.60021 27.7216C8.91899 27.6575 8.25379 27.4619 7.56546 27.3321C6.90559 27.1346 6.22793 26.9532 5.58941 26.7131C4.95088 26.473 4.31591 26.2329 3.7343 25.9412C3.64003 25.9003 3.55644 25.8505 3.46928 25.8078C4.38457 27.2952 5.49881 28.6506 6.78108 29.8364C8.22788 31.0473 9.79401 32.1081 11.4553 33.0023C11.6207 33.0823 11.7772 33.1802 11.9462 33.2549V33.2638C15.5373 35.1313 20.5992 36.8708 27.1268 36.9882C32.6548 37.4578 36.6335 41.4437 38.2236 46.3865C39.6114 40.7453 39.1406 34.8069 36.8812 29.4549C34.6219 24.1029 30.6947 19.6235 25.6843 16.6834L25.6879 16.6745Z" fill="white"></path><path d="M49.3452 18.6119C41.2009 14.964 36.6796 21.335 36.6796 21.335L36.7241 21.367C36.0616 22.2427 35.5428 23.2184 35.1873 24.2573C34.9866 24.5779 34.8129 24.9146 34.668 25.264C36.6708 28.3541 38.0198 31.8216 38.6319 35.4528C39.244 39.084 39.1062 42.8021 38.227 46.378C38.227 46.378 48.0094 44.0658 46.4585 30.6674C46.7359 26.9626 48.9254 23.6792 49.5782 22.934C51.2056 22.5516 53.3026 20.403 53.3026 20.403C53.3026 20.403 52.2924 18.868 49.3452 18.6119Z" fill="#ECECEC"></path><path d="M35.6882 47.3494C35.7665 47.3494 35.843 47.3583 35.9194 47.3601C35.4356 47.2605 33.3742 46.8514 29.8419 47.6322C29.746 48.3695 29.7604 49.117 29.8846 49.8501C30.6371 49.0684 31.538 48.4446 32.5345 48.0152C33.531 47.5858 34.6032 47.3594 35.6882 47.3494Z" fill="#ECECEC" style="mix-blend-mode:multiply"></path><path d="M30.8464 52.6243C30.3599 51.7655 30.0338 50.8252 29.8842 49.8496C28.735 51.0349 27.9722 52.5408 27.6966 54.1685C27.421 55.7963 27.6454 57.4693 28.3403 58.9669C28.6587 56.395 29.7543 54.1734 31.0207 52.3859C30.9638 52.4606 30.9033 52.5407 30.8464 52.6243Z" fill="#EAEAEA" style="mix-blend-mode:multiply"></path><path d="M35.9178 47.3602L36.0031 47.3762C35.8022 47.3388 34.5127 47.0205 32.2129 47.2463C34.3063 47.0365 35.5549 47.2855 35.9178 47.3602Z" fill="url(#paint10_linear_2499_15656)"></path><path d="M28.3396 58.9672C27.6447 57.4697 27.4202 55.7966 27.6958 54.1689C27.9715 52.5412 28.7342 51.0353 29.8834 49.85C29.7592 49.1169 29.7448 48.3694 29.8407 47.6321C30.623 47.4582 31.4146 47.3294 32.2116 47.2461C30.4315 47.441 28.6798 47.8409 26.9914 48.4378C10.7934 53.9942 14.9109 67.9831 15.4072 69.0787C16.4332 69.5736 17.5504 69.8509 18.6887 69.8933C18.6101 69.5094 18.5507 69.1218 18.5109 68.7319C18.4324 68.0274 18.4157 67.3174 18.4611 66.61C18.5109 66.2543 18.5233 65.8879 18.6069 65.5428C18.6686 65.2013 18.7554 64.8649 18.8666 64.5361C18.9572 64.2264 19.0763 63.9257 19.2223 63.6379C19.3375 63.3745 19.4762 63.1221 19.6367 62.8838C19.7879 62.6668 19.9249 62.4658 20.0458 62.2879L20.4247 61.8806L20.7502 61.5249L20.4727 61.9162L20.1561 62.3609L19.8377 62.9887C19.7142 63.2353 19.613 63.4924 19.5354 63.7571C19.4337 64.0461 19.3587 64.3437 19.3113 64.6464C19.2465 64.9653 19.2067 65.2888 19.1921 65.614C19.1565 65.9412 19.1921 66.2827 19.1921 66.6153C19.2366 67.2716 19.3383 67.9226 19.4962 68.5611C19.6015 69.0071 19.7346 69.4461 19.8946 69.8755C21.6448 69.7653 23.3736 69.3117 25.1149 69.0325C25.0847 68.9756 25.0509 68.9275 25.0224 68.8688C24.6535 68.1658 24.3464 67.432 24.1047 66.6758C24.0122 66.2809 23.877 65.9003 23.8219 65.5037C23.7481 65.1222 23.7024 64.7358 23.6849 64.3476C23.6528 63.9872 23.6528 63.6247 23.6849 63.2644C23.6989 62.9429 23.7412 62.6233 23.8112 62.3093L23.989 61.5196C24.0762 61.2955 24.1545 61.0998 24.2167 60.9397C24.343 60.6196 24.4159 60.4382 24.4159 60.4382C24.4159 60.4382 24.3643 60.6267 24.2772 60.9593C24.2327 61.1229 24.1811 61.315 24.1189 61.5516C24.094 61.7864 24.0637 62.0514 24.03 62.3395C23.9979 62.6486 23.9938 62.9599 24.0175 63.2697C24.0226 63.614 24.0601 63.957 24.1296 64.2942C24.188 64.6557 24.273 65.0124 24.3839 65.3614C24.4782 65.7171 24.6489 66.0728 24.7752 66.4286C25.082 67.1039 25.4468 67.7514 25.8655 68.3637C25.9882 68.5522 26.1181 68.7194 26.2479 68.8884C28.087 68.7105 29.9492 68.8617 31.8772 70.0001C28.7398 65.895 27.9429 62.1634 28.3396 58.9672Z" fill="white"></path><defs><linearGradient id="paint0_linear_2499_15656" x1="31.7035" y1="49.9571" x2="42.5016" y2="50.1616" gradientUnits="userSpaceOnUse"><stop stop-color="#008500"></stop><stop offset="0.11" stop-color="#088D07"></stop><stop offset="0.29" stop-color="#1EA219"></stop><stop offset="0.51" stop-color="#42C536"></stop><stop offset="0.75" stop-color="#73F65F"></stop><stop offset="0.8" stop-color="#7DFF67"></stop></linearGradient><linearGradient id="paint1_linear_2499_15656" x1="22.4804" y1="18.4461" x2="28.4477" y2="1.21302" gradientUnits="userSpaceOnUse"><stop stop-color="#008500"></stop><stop offset="0.79" stop-color="#1DD600"></stop></linearGradient><linearGradient id="paint2_linear_2499_15656" x1="36.4647" y1="30.4396" x2="37.9338" y2="29.1981" gradientUnits="userSpaceOnUse"><stop stop-color="#008500"></stop><stop offset="0.79" stop-color="#1DD600"></stop></linearGradient><linearGradient id="paint3_linear_2499_15656" x1="10.9469" y1="36.7536" x2="33.8163" y2="11.7559" gradientUnits="userSpaceOnUse"><stop stop-color="#00E1FF"></stop><stop offset="0.79" stop-color="#009CFF"></stop></linearGradient><linearGradient id="paint4_linear_2499_15656" x1="57.5136" y1="22.9587" x2="23.8264" y2="40.5974" gradientUnits="userSpaceOnUse"><stop stop-color="#00E1FF"></stop><stop offset="0.79" stop-color="#007FFF"></stop></linearGradient><linearGradient id="paint5_linear_2499_15656" x1="29.9023" y1="50.2697" x2="36.3196" y2="44.29" gradientUnits="userSpaceOnUse"><stop stop-color="#008500"></stop><stop offset="0.79" stop-color="#1DD600"></stop></linearGradient><linearGradient id="paint6_linear_2499_15656" x1="26.7583" y1="56.274" x2="37.6169" y2="47.6708" gradientUnits="userSpaceOnUse"><stop stop-color="#008500"></stop><stop offset="0.79" stop-color="#1DD600"></stop></linearGradient><linearGradient id="paint7_linear_2499_15656" x1="32.9716" y1="48.1639" x2="37.4537" y2="44.8005" gradientUnits="userSpaceOnUse"><stop stop-color="#008500"></stop><stop offset="0.79" stop-color="#1DD600"></stop></linearGradient><linearGradient id="paint8_linear_2499_15656" x1="16.3579" y1="68.4473" x2="39.9319" y2="50.3569" gradientUnits="userSpaceOnUse"><stop stop-color="#008500"></stop><stop offset="0.79" stop-color="#1DD600"></stop></linearGradient><linearGradient id="paint9_linear_2499_15656" x1="36.4637" y1="30.4396" x2="37.9329" y2="29.1981" gradientUnits="userSpaceOnUse"><stop stop-color="#008500"></stop><stop offset="0.79" stop-color="#1DD600"></stop></linearGradient><linearGradient id="paint10_linear_2499_15656" x1="32.9706" y1="48.1659" x2="37.4527" y2="44.8025" gradientUnits="userSpaceOnUse"><stop stop-color="#008500"></stop><stop offset="0.79" stop-color="#1DD600"></stop></linearGradient></defs></svg>